<svg width="9" height="18" viewBox="0 0 9 18" fill="none" xmlns="http://www.w3.org/2000/svg">
<path d="M1.21919 17.0741C0.934815 17.0747 0.659241 16.9756 0.44027 16.7942C0.191391 16.5878 0.034821 16.2909 0.00514264 15.969C-0.0245357 15.6471 0.0750889 15.3265 0.282059 15.0782L5.73438 8.55484L0.476792 2.01936C0.272599 1.76793 0.177071 1.44548 0.211327 1.12341C0.245591 0.801325 0.406838 0.506189 0.659348 0.303339C0.913903 0.0793588 1.25037 -0.0282729 1.58766 0.00637602C1.92497 0.0410364 2.23251 0.21483 2.43621 0.485895L8.3145 7.78811C8.68365 8.2372 8.68365 8.88466 8.3145 9.33375L2.22932 16.636C1.98171 16.9347 1.60648 17.0974 1.21919 17.0741Z" fill="black"/>
</svg>
